<svg width="496" height="422" viewBox="0 0 496 422" fill="none" xmlns="http://www.w3.org/2000/svg">
<g clip-path="url(#clip0)">
<rect width="496" height="422" fill="#061621"/>
<path opacity="0.1" d="M4.996 14.128V10.762H1.81V9.664H4.996V6.586H6.13V9.664H9.208V10.762H6.13V14.128H4.996ZM22.996 14.128V10.762H19.81V9.664H22.996V6.586H24.13V9.664H27.208V10.762H24.13V14.128H22.996ZM40.996 14.128V10.762H37.81V9.664H40.996V6.586H42.13V9.664H45.208V10.762H42.13V14.128H40.996ZM58.996 14.128V10.762H55.81V9.664H58.996V6.586H60.13V9.664H63.208V10.762H60.13V14.128H58.996ZM76.996 14.128V10.762H73.81V9.664H76.996V6.586H78.13V9.664H81.208V10.762H78.13V14.128H76.996ZM94.996 14.128V10.762H91.81V9.664H94.996V6.586H96.13V9.664H99.208V10.762H96.13V14.128H94.996ZM112.996 14.128V10.762H109.81V9.664H112.996V6.586H114.13V9.664H117.208V10.762H114.13V14.128H112.996ZM130.996 14.128V10.762H127.81V9.664H130.996V6.586H132.13V9.664H135.208V10.762H132.13V14.128H130.996ZM148.996 14.128V10.762H145.81V9.664H148.996V6.586H150.13V9.664H153.208V10.762H150.13V14.128H148.996ZM166.996 14.128V10.762H163.81V9.664H166.996V6.586H168.13V9.664H171.208V10.762H168.13V14.128H166.996ZM184.996 14.128V10.762H181.81V9.664H184.996V6.586H186.13V9.664H189.208V10.762H186.13V14.128H184.996ZM202.996 14.128V10.762H199.81V9.664H202.996V6.586H204.13V9.664H207.208V10.762H204.13V14.128H202.996ZM220.996 14.128V10.762H217.81V9.664H220.996V6.586H222.13V9.664H225.208V10.762H222.13V14.128H220.996ZM238.996 14.128V10.762H235.81V9.664H238.996V6.586H240.13V9.664H243.208V10.762H240.13V14.128H238.996ZM256.996 14.128V10.762H253.81V9.664H256.996V6.586H258.13V9.664H261.208V10.762H258.13V14.128H256.996ZM274.996 14.128V10.762H271.81V9.664H274.996V6.586H276.13V9.664H279.208V10.762H276.13V14.128H274.996ZM292.996 14.128V10.762H289.81V9.664H292.996V6.586H294.13V9.664H297.208V10.762H294.13V14.128H292.996ZM310.996 14.128V10.762H307.81V9.664H310.996V6.586H312.13V9.664H315.208V10.762H312.13V14.128H310.996ZM328.996 14.128V10.762H325.81V9.664H328.996V6.586H330.13V9.664H333.208V10.762H330.13V14.128H328.996ZM346.996 14.128V10.762H343.81V9.664H346.996V6.586H348.13V9.664H351.208V10.762H348.13V14.128H346.996ZM364.996 14.128V10.762H361.81V9.664H364.996V6.586H366.13V9.664H369.208V10.762H366.13V14.128H364.996ZM382.996 14.128V10.762H379.81V9.664H382.996V6.586H384.13V9.664H387.208V10.762H384.13V14.128H382.996ZM400.996 14.128V10.762H397.81V9.664H400.996V6.586H402.13V9.664H405.208V10.762H402.13V14.128H400.996ZM418.996 14.128V10.762H415.81V9.664H418.996V6.586H420.13V9.664H423.208V10.762H420.13V14.128H418.996ZM436.996 14.128V10.762H433.81V9.664H436.996V6.586H438.13V9.664H441.208V10.762H438.13V14.128H436.996ZM454.996 14.128V10.762H451.81V9.664H454.996V6.586H456.13V9.664H459.208V10.762H456.13V14.128H454.996ZM472.996 14.128V10.762H469.81V9.664H472.996V6.586H474.13V9.664H477.208V10.762H474.13V14.128H472.996ZM490.996 14.128V10.762H487.81V9.664H490.996V6.586H492.13V9.664H495.208V10.762H492.13V14.128H490.996Z" fill="white"/>
<path opacity="0.1" d="M4.996 33.128V29.762H1.81V28.664H4.996V25.586H6.13V28.664H9.208V29.762H6.13V33.128H4.996ZM22.996 33.128V29.762H19.81V28.664H22.996V25.586H24.13V28.664H27.208V29.762H24.13V33.128H22.996ZM40.996 33.128V29.762H37.81V28.664H40.996V25.586H42.13V28.664H45.208V29.762H42.13V33.128H40.996ZM58.996 33.128V29.762H55.81V28.664H58.996V25.586H60.13V28.664H63.208V29.762H60.13V33.128H58.996ZM76.996 33.128V29.762H73.81V28.664H76.996V25.586H78.13V28.664H81.208V29.762H78.13V33.128H76.996ZM94.996 33.128V29.762H91.81V28.664H94.996V25.586H96.13V28.664H99.208V29.762H96.13V33.128H94.996ZM112.996 33.128V29.762H109.81V28.664H112.996V25.586H114.13V28.664H117.208V29.762H114.13V33.128H112.996ZM130.996 33.128V29.762H127.81V28.664H130.996V25.586H132.13V28.664H135.208V29.762H132.13V33.128H130.996ZM148.996 33.128V29.762H145.81V28.664H148.996V25.586H150.13V28.664H153.208V29.762H150.13V33.128H148.996ZM166.996 33.128V29.762H163.81V28.664H166.996V25.586H168.13V28.664H171.208V29.762H168.13V33.128H166.996ZM184.996 33.128V29.762H181.81V28.664H184.996V25.586H186.13V28.664H189.208V29.762H186.13V33.128H184.996ZM202.996 33.128V29.762H199.81V28.664H202.996V25.586H204.13V28.664H207.208V29.762H204.13V33.128H202.996ZM220.996 33.128V29.762H217.81V28.664H220.996V25.586H222.13V28.664H225.208V29.762H222.13V33.128H220.996ZM238.996 33.128V29.762H235.81V28.664H238.996V25.586H240.13V28.664H243.208V29.762H240.13V33.128H238.996ZM256.996 33.128V29.762H253.81V28.664H256.996V25.586H258.13V28.664H261.208V29.762H258.13V33.128H256.996ZM274.996 33.128V29.762H271.81V28.664H274.996V25.586H276.13V28.664H279.208V29.762H276.13V33.128H274.996ZM292.996 33.128V29.762H289.81V28.664H292.996V25.586H294.13V28.664H297.208V29.762H294.13V33.128H292.996ZM310.996 33.128V29.762H307.81V28.664H310.996V25.586H312.13V28.664H315.208V29.762H312.13V33.128H310.996ZM328.996 33.128V29.762H325.81V28.664H328.996V25.586H330.13V28.664H333.208V29.762H330.13V33.128H328.996ZM346.996 33.128V29.762H343.81V28.664H346.996V25.586H348.13V28.664H351.208V29.762H348.13V33.128H346.996ZM364.996 33.128V29.762H361.81V28.664H364.996V25.586H366.13V28.664H369.208V29.762H366.13V33.128H364.996ZM382.996 33.128V29.762H379.81V28.664H382.996V25.586H384.13V28.664H387.208V29.762H384.13V33.128H382.996ZM400.996 33.128V29.762H397.81V28.664H400.996V25.586H402.13V28.664H405.208V29.762H402.13V33.128H400.996ZM418.996 33.128V29.762H415.81V28.664H418.996V25.586H420.13V28.664H423.208V29.762H420.13V33.128H418.996ZM436.996 33.128V29.762H433.81V28.664H436.996V25.586H438.13V28.664H441.208V29.762H438.13V33.128H436.996ZM454.996 33.128V29.762H451.81V28.664H454.996V25.586H456.13V28.664H459.208V29.762H456.13V33.128H454.996ZM472.996 33.128V29.762H469.81V28.664H472.996V25.586H474.13V28.664H477.208V29.762H474.13V33.128H472.996ZM490.996 33.128V29.762H487.81V28.664H490.996V25.586H492.13V28.664H495.208V29.762H492.13V33.128H490.996Z" fill="white"/>
<path opacity="0.1" d="M4.996 52.128V48.762H1.81V47.664H4.996V44.586H6.13V47.664H9.208V48.762H6.13V52.128H4.996ZM22.996 52.128V48.762H19.81V47.664H22.996V44.586H24.13V47.664H27.208V48.762H24.13V52.128H22.996ZM40.996 52.128V48.762H37.81V47.664H40.996V44.586H42.13V47.664H45.208V48.762H42.13V52.128H40.996ZM58.996 52.128V48.762H55.81V47.664H58.996V44.586H60.13V47.664H63.208V48.762H60.13V52.128H58.996ZM76.996 52.128V48.762H73.81V47.664H76.996V44.586H78.13V47.664H81.208V48.762H78.13V52.128H76.996ZM94.996 52.128V48.762H91.81V47.664H94.996V44.586H96.13V47.664H99.208V48.762H96.13V52.128H94.996ZM112.996 52.128V48.762H109.81V47.664H112.996V44.586H114.13V47.664H117.208V48.762H114.13V52.128H112.996ZM130.996 52.128V48.762H127.81V47.664H130.996V44.586H132.13V47.664H135.208V48.762H132.13V52.128H130.996ZM148.996 52.128V48.762H145.81V47.664H148.996V44.586H150.13V47.664H153.208V48.762H150.13V52.128H148.996ZM166.996 52.128V48.762H163.81V47.664H166.996V44.586H168.13V47.664H171.208V48.762H168.13V52.128H166.996ZM184.996 52.128V48.762H181.81V47.664H184.996V44.586H186.13V47.664H189.208V48.762H186.13V52.128H184.996ZM202.996 52.128V48.762H199.81V47.664H202.996V44.586H204.13V47.664H207.208V48.762H204.13V52.128H202.996ZM220.996 52.128V48.762H217.81V47.664H220.996V44.586H222.13V47.664H225.208V48.762H222.13V52.128H220.996ZM238.996 52.128V48.762H235.81V47.664H238.996V44.586H240.13V47.664H243.208V48.762H240.13V52.128H238.996ZM256.996 52.128V48.762H253.81V47.664H256.996V44.586H258.13V47.664H261.208V48.762H258.13V52.128H256.996ZM274.996 52.128V48.762H271.81V47.664H274.996V44.586H276.13V47.664H279.208V48.762H276.13V52.128H274.996ZM292.996 52.128V48.762H289.81V47.664H292.996V44.586H294.13V47.664H297.208V48.762H294.13V52.128H292.996ZM310.996 52.128V48.762H307.81V47.664H310.996V44.586H312.13V47.664H315.208V48.762H312.13V52.128H310.996ZM328.996 52.128V48.762H325.81V47.664H328.996V44.586H330.13V47.664H333.208V48.762H330.13V52.128H328.996ZM346.996 52.128V48.762H343.81V47.664H346.996V44.586H348.13V47.664H351.208V48.762H348.13V52.128H346.996ZM364.996 52.128V48.762H361.81V47.664H364.996V44.586H366.13V47.664H369.208V48.762H366.13V52.128H364.996ZM382.996 52.128V48.762H379.81V47.664H382.996V44.586H384.13V47.664H387.208V48.762H384.13V52.128H382.996ZM400.996 52.128V48.762H397.81V47.664H400.996V44.586H402.13V47.664H405.208V48.762H402.13V52.128H400.996ZM418.996 52.128V48.762H415.81V47.664H418.996V44.586H420.13V47.664H423.208V48.762H420.13V52.128H418.996ZM436.996 52.128V48.762H433.81V47.664H436.996V44.586H438.13V47.664H441.208V48.762H438.13V52.128H436.996ZM454.996 52.128V48.762H451.81V47.664H454.996V44.586H456.13V47.664H459.208V48.762H456.13V52.128H454.996ZM472.996 52.128V48.762H469.81V47.664H472.996V44.586H474.13V47.664H477.208V48.762H474.13V52.128H472.996ZM490.996 52.128V48.762H487.81V47.664H490.996V44.586H492.13V47.664H495.208V48.762H492.13V52.128H490.996Z" fill="white"/>
<path opacity="0.1" d="M4.996 71.128V67.762H1.81V66.664H4.996V63.586H6.13V66.664H9.208V67.762H6.13V71.128H4.996ZM22.996 71.128V67.762H19.81V66.664H22.996V63.586H24.13V66.664H27.208V67.762H24.13V71.128H22.996ZM40.996 71.128V67.762H37.81V66.664H40.996V63.586H42.13V66.664H45.208V67.762H42.13V71.128H40.996ZM58.996 71.128V67.762H55.81V66.664H58.996V63.586H60.13V66.664H63.208V67.762H60.13V71.128H58.996ZM76.996 71.128V67.762H73.81V66.664H76.996V63.586H78.13V66.664H81.208V67.762H78.13V71.128H76.996ZM94.996 71.128V67.762H91.81V66.664H94.996V63.586H96.13V66.664H99.208V67.762H96.13V71.128H94.996ZM112.996 71.128V67.762H109.81V66.664H112.996V63.586H114.13V66.664H117.208V67.762H114.13V71.128H112.996ZM130.996 71.128V67.762H127.81V66.664H130.996V63.586H132.13V66.664H135.208V67.762H132.13V71.128H130.996ZM148.996 71.128V67.762H145.81V66.664H148.996V63.586H150.13V66.664H153.208V67.762H150.13V71.128H148.996ZM166.996 71.128V67.762H163.81V66.664H166.996V63.586H168.13V66.664H171.208V67.762H168.13V71.128H166.996ZM184.996 71.128V67.762H181.81V66.664H184.996V63.586H186.13V66.664H189.208V67.762H186.13V71.128H184.996ZM202.996 71.128V67.762H199.81V66.664H202.996V63.586H204.13V66.664H207.208V67.762H204.13V71.128H202.996ZM220.996 71.128V67.762H217.81V66.664H220.996V63.586H222.13V66.664H225.208V67.762H222.13V71.128H220.996ZM238.996 71.128V67.762H235.81V66.664H238.996V63.586H240.13V66.664H243.208V67.762H240.13V71.128H238.996ZM256.996 71.128V67.762H253.81V66.664H256.996V63.586H258.13V66.664H261.208V67.762H258.13V71.128H256.996ZM274.996 71.128V67.762H271.81V66.664H274.996V63.586H276.13V66.664H279.208V67.762H276.13V71.128H274.996ZM292.996 71.128V67.762H289.81V66.664H292.996V63.586H294.13V66.664H297.208V67.762H294.13V71.128H292.996ZM310.996 71.128V67.762H307.81V66.664H310.996V63.586H312.13V66.664H315.208V67.762H312.13V71.128H310.996ZM328.996 71.128V67.762H325.81V66.664H328.996V63.586H330.13V66.664H333.208V67.762H330.13V71.128H328.996ZM346.996 71.128V67.762H343.81V66.664H346.996V63.586H348.13V66.664H351.208V67.762H348.13V71.128H346.996ZM364.996 71.128V67.762H361.81V66.664H364.996V63.586H366.13V66.664H369.208V67.762H366.13V71.128H364.996ZM382.996 71.128V67.762H379.81V66.664H382.996V63.586H384.13V66.664H387.208V67.762H384.13V71.128H382.996ZM400.996 71.128V67.762H397.81V66.664H400.996V63.586H402.13V66.664H405.208V67.762H402.13V71.128H400.996ZM418.996 71.128V67.762H415.81V66.664H418.996V63.586H420.13V66.664H423.208V67.762H420.13V71.128H418.996ZM436.996 71.128V67.762H433.81V66.664H436.996V63.586H438.13V66.664H441.208V67.762H438.13V71.128H436.996ZM454.996 71.128V67.762H451.81V66.664H454.996V63.586H456.13V66.664H459.208V67.762H456.13V71.128H454.996ZM472.996 71.128V67.762H469.81V66.664H472.996V63.586H474.13V66.664H477.208V67.762H474.13V71.128H472.996ZM490.996 71.128V67.762H487.81V66.664H490.996V63.586H492.13V66.664H495.208V67.762H492.13V71.128H490.996Z" fill="white"/>
<path opacity="0.1" d="M4.996 90.128V86.762H1.81V85.664H4.996V82.586H6.13V85.664H9.208V86.762H6.13V90.128H4.996ZM22.996 90.128V86.762H19.81V85.664H22.996V82.586H24.13V85.664H27.208V86.762H24.13V90.128H22.996ZM40.996 90.128V86.762H37.81V85.664H40.996V82.586H42.13V85.664H45.208V86.762H42.13V90.128H40.996ZM58.996 90.128V86.762H55.81V85.664H58.996V82.586H60.13V85.664H63.208V86.762H60.13V90.128H58.996ZM76.996 90.128V86.762H73.81V85.664H76.996V82.586H78.13V85.664H81.208V86.762H78.13V90.128H76.996ZM94.996 90.128V86.762H91.81V85.664H94.996V82.586H96.13V85.664H99.208V86.762H96.13V90.128H94.996ZM112.996 90.128V86.762H109.81V85.664H112.996V82.586H114.13V85.664H117.208V86.762H114.13V90.128H112.996ZM130.996 90.128V86.762H127.81V85.664H130.996V82.586H132.13V85.664H135.208V86.762H132.13V90.128H130.996ZM148.996 90.128V86.762H145.81V85.664H148.996V82.586H150.13V85.664H153.208V86.762H150.13V90.128H148.996ZM166.996 90.128V86.762H163.81V85.664H166.996V82.586H168.13V85.664H171.208V86.762H168.13V90.128H166.996ZM184.996 90.128V86.762H181.81V85.664H184.996V82.586H186.13V85.664H189.208V86.762H186.13V90.128H184.996ZM202.996 90.128V86.762H199.81V85.664H202.996V82.586H204.13V85.664H207.208V86.762H204.13V90.128H202.996ZM220.996 90.128V86.762H217.81V85.664H220.996V82.586H222.13V85.664H225.208V86.762H222.13V90.128H220.996ZM238.996 90.128V86.762H235.81V85.664H238.996V82.586H240.13V85.664H243.208V86.762H240.13V90.128H238.996ZM256.996 90.128V86.762H253.81V85.664H256.996V82.586H258.13V85.664H261.208V86.762H258.13V90.128H256.996ZM274.996 90.128V86.762H271.81V85.664H274.996V82.586H276.13V85.664H279.208V86.762H276.13V90.128H274.996ZM292.996 90.128V86.762H289.81V85.664H292.996V82.586H294.13V85.664H297.208V86.762H294.13V90.128H292.996ZM310.996 90.128V86.762H307.81V85.664H310.996V82.586H312.13V85.664H315.208V86.762H312.13V90.128H310.996ZM328.996 90.128V86.762H325.81V85.664H328.996V82.586H330.13V85.664H333.208V86.762H330.13V90.128H328.996ZM346.996 90.128V86.762H343.81V85.664H346.996V82.586H348.13V85.664H351.208V86.762H348.13V90.128H346.996ZM364.996 90.128V86.762H361.81V85.664H364.996V82.586H366.13V85.664H369.208V86.762H366.13V90.128H364.996ZM382.996 90.128V86.762H379.81V85.664H382.996V82.586H384.13V85.664H387.208V86.762H384.13V90.128H382.996ZM400.996 90.128V86.762H397.81V85.664H400.996V82.586H402.13V85.664H405.208V86.762H402.13V90.128H400.996ZM418.996 90.128V86.762H415.81V85.664H418.996V82.586H420.13V85.664H423.208V86.762H420.13V90.128H418.996ZM436.996 90.128V86.762H433.81V85.664H436.996V82.586H438.13V85.664H441.208V86.762H438.13V90.128H436.996ZM454.996 90.128V86.762H451.81V85.664H454.996V82.586H456.13V85.664H459.208V86.762H456.13V90.128H454.996ZM472.996 90.128V86.762H469.81V85.664H472.996V82.586H474.13V85.664H477.208V86.762H474.13V90.128H472.996ZM490.996 90.128V86.762H487.81V85.664H490.996V82.586H492.13V85.664H495.208V86.762H492.13V90.128H490.996Z" fill="white"/>
<path opacity="0.1" d="M4.996 109.128V105.762H1.81V104.664H4.996V101.586H6.13V104.664H9.208V105.762H6.13V109.128H4.996ZM22.996 109.128V105.762H19.81V104.664H22.996V101.586H24.13V104.664H27.208V105.762H24.13V109.128H22.996ZM40.996 109.128V105.762H37.81V104.664H40.996V101.586H42.13V104.664H45.208V105.762H42.13V109.128H40.996ZM58.996 109.128V105.762H55.81V104.664H58.996V101.586H60.13V104.664H63.208V105.762H60.13V109.128H58.996ZM76.996 109.128V105.762H73.81V104.664H76.996V101.586H78.13V104.664H81.208V105.762H78.13V109.128H76.996ZM94.996 109.128V105.762H91.81V104.664H94.996V101.586H96.13V104.664H99.208V105.762H96.13V109.128H94.996ZM112.996 109.128V105.762H109.81V104.664H112.996V101.586H114.13V104.664H117.208V105.762H114.13V109.128H112.996ZM130.996 109.128V105.762H127.81V104.664H130.996V101.586H132.13V104.664H135.208V105.762H132.13V109.128H130.996ZM148.996 109.128V105.762H145.81V104.664H148.996V101.586H150.13V104.664H153.208V105.762H150.13V109.128H148.996ZM166.996 109.128V105.762H163.81V104.664H166.996V101.586H168.13V104.664H171.208V105.762H168.13V109.128H166.996ZM184.996 109.128V105.762H181.81V104.664H184.996V101.586H186.13V104.664H189.208V105.762H186.13V109.128H184.996ZM202.996 109.128V105.762H199.81V104.664H202.996V101.586H204.13V104.664H207.208V105.762H204.13V109.128H202.996ZM220.996 109.128V105.762H217.81V104.664H220.996V101.586H222.13V104.664H225.208V105.762H222.13V109.128H220.996ZM238.996 109.128V105.762H235.81V104.664H238.996V101.586H240.13V104.664H243.208V105.762H240.13V109.128H238.996ZM256.996 109.128V105.762H253.81V104.664H256.996V101.586H258.13V104.664H261.208V105.762H258.13V109.128H256.996ZM274.996 109.128V105.762H271.81V104.664H274.996V101.586H276.13V104.664H279.208V105.762H276.13V109.128H274.996ZM292.996 109.128V105.762H289.81V104.664H292.996V101.586H294.13V104.664H297.208V105.762H294.13V109.128H292.996ZM310.996 109.128V105.762H307.81V104.664H310.996V101.586H312.13V104.664H315.208V105.762H312.13V109.128H310.996ZM328.996 109.128V105.762H325.81V104.664H328.996V101.586H330.13V104.664H333.208V105.762H330.13V109.128H328.996ZM346.996 109.128V105.762H343.81V104.664H346.996V101.586H348.13V104.664H351.208V105.762H348.13V109.128H346.996ZM364.996 109.128V105.762H361.81V104.664H364.996V101.586H366.13V104.664H369.208V105.762H366.13V109.128H364.996ZM382.996 109.128V105.762H379.81V104.664H382.996V101.586H384.13V104.664H387.208V105.762H384.13V109.128H382.996ZM400.996 109.128V105.762H397.81V104.664H400.996V101.586H402.13V104.664H405.208V105.762H402.13V109.128H400.996ZM418.996 109.128V105.762H415.81V104.664H418.996V101.586H420.13V104.664H423.208V105.762H420.13V109.128H418.996ZM436.996 109.128V105.762H433.81V104.664H436.996V101.586H438.13V104.664H441.208V105.762H438.13V109.128H436.996ZM454.996 109.128V105.762H451.81V104.664H454.996V101.586H456.13V104.664H459.208V105.762H456.13V109.128H454.996ZM472.996 109.128V105.762H469.81V104.664H472.996V101.586H474.13V104.664H477.208V105.762H474.13V109.128H472.996ZM490.996 109.128V105.762H487.81V104.664H490.996V101.586H492.13V104.664H495.208V105.762H492.13V109.128H490.996Z" fill="white"/>
<path opacity="0.1" d="M4.996 128.128V124.762H1.81V123.664H4.996V120.586H6.13V123.664H9.208V124.762H6.13V128.128H4.996ZM22.996 128.128V124.762H19.81V123.664H22.996V120.586H24.13V123.664H27.208V124.762H24.13V128.128H22.996ZM40.996 128.128V124.762H37.81V123.664H40.996V120.586H42.13V123.664H45.208V124.762H42.13V128.128H40.996ZM58.996 128.128V124.762H55.81V123.664H58.996V120.586H60.13V123.664H63.208V124.762H60.13V128.128H58.996ZM76.996 128.128V124.762H73.81V123.664H76.996V120.586H78.13V123.664H81.208V124.762H78.13V128.128H76.996ZM94.996 128.128V124.762H91.81V123.664H94.996V120.586H96.13V123.664H99.208V124.762H96.13V128.128H94.996ZM112.996 128.128V124.762H109.81V123.664H112.996V120.586H114.13V123.664H117.208V124.762H114.13V128.128H112.996ZM130.996 128.128V124.762H127.81V123.664H130.996V120.586H132.13V123.664H135.208V124.762H132.13V128.128H130.996ZM148.996 128.128V124.762H145.81V123.664H148.996V120.586H150.13V123.664H153.208V124.762H150.13V128.128H148.996ZM166.996 128.128V124.762H163.81V123.664H166.996V120.586H168.13V123.664H171.208V124.762H168.13V128.128H166.996ZM184.996 128.128V124.762H181.81V123.664H184.996V120.586H186.13V123.664H189.208V124.762H186.13V128.128H184.996ZM202.996 128.128V124.762H199.81V123.664H202.996V120.586H204.13V123.664H207.208V124.762H204.13V128.128H202.996ZM220.996 128.128V124.762H217.81V123.664H220.996V120.586H222.13V123.664H225.208V124.762H222.13V128.128H220.996ZM238.996 128.128V124.762H235.81V123.664H238.996V120.586H240.13V123.664H243.208V124.762H240.13V128.128H238.996ZM256.996 128.128V124.762H253.81V123.664H256.996V120.586H258.13V123.664H261.208V124.762H258.13V128.128H256.996ZM274.996 128.128V124.762H271.81V123.664H274.996V120.586H276.13V123.664H279.208V124.762H276.13V128.128H274.996ZM292.996 128.128V124.762H289.81V123.664H292.996V120.586H294.13V123.664H297.208V124.762H294.13V128.128H292.996ZM310.996 128.128V124.762H307.81V123.664H310.996V120.586H312.13V123.664H315.208V124.762H312.13V128.128H310.996ZM328.996 128.128V124.762H325.81V123.664H328.996V120.586H330.13V123.664H333.208V124.762H330.13V128.128H328.996ZM346.996 128.128V124.762H343.81V123.664H346.996V120.586H348.13V123.664H351.208V124.762H348.13V128.128H346.996ZM364.996 128.128V124.762H361.81V123.664H364.996V120.586H366.13V123.664H369.208V124.762H366.13V128.128H364.996ZM382.996 128.128V124.762H379.81V123.664H382.996V120.586H384.13V123.664H387.208V124.762H384.13V128.128H382.996ZM400.996 128.128V124.762H397.81V123.664H400.996V120.586H402.13V123.664H405.208V124.762H402.13V128.128H400.996ZM418.996 128.128V124.762H415.81V123.664H418.996V120.586H420.13V123.664H423.208V124.762H420.13V128.128H418.996ZM436.996 128.128V124.762H433.81V123.664H436.996V120.586H438.13V123.664H441.208V124.762H438.13V128.128H436.996ZM454.996 128.128V124.762H451.81V123.664H454.996V120.586H456.13V123.664H459.208V124.762H456.13V128.128H454.996ZM472.996 128.128V124.762H469.81V123.664H472.996V120.586H474.13V123.664H477.208V124.762H474.13V128.128H472.996ZM490.996 128.128V124.762H487.81V123.664H490.996V120.586H492.13V123.664H495.208V124.762H492.13V128.128H490.996Z" fill="white"/>
<path opacity="0.1" d="M4.996 147.128V143.762H1.81V142.664H4.996V139.586H6.13V142.664H9.208V143.762H6.13V147.128H4.996ZM22.996 147.128V143.762H19.81V142.664H22.996V139.586H24.13V142.664H27.208V143.762H24.13V147.128H22.996ZM40.996 147.128V143.762H37.81V142.664H40.996V139.586H42.13V142.664H45.208V143.762H42.13V147.128H40.996ZM58.996 147.128V143.762H55.81V142.664H58.996V139.586H60.13V142.664H63.208V143.762H60.13V147.128H58.996ZM76.996 147.128V143.762H73.81V142.664H76.996V139.586H78.13V142.664H81.208V143.762H78.13V147.128H76.996ZM94.996 147.128V143.762H91.81V142.664H94.996V139.586H96.13V142.664H99.208V143.762H96.13V147.128H94.996ZM112.996 147.128V143.762H109.81V142.664H112.996V139.586H114.13V142.664H117.208V143.762H114.13V147.128H112.996ZM130.996 147.128V143.762H127.81V142.664H130.996V139.586H132.13V142.664H135.208V143.762H132.13V147.128H130.996ZM148.996 147.128V143.762H145.81V142.664H148.996V139.586H150.13V142.664H153.208V143.762H150.13V147.128H148.996ZM166.996 147.128V143.762H163.81V142.664H166.996V139.586H168.13V142.664H171.208V143.762H168.13V147.128H166.996ZM184.996 147.128V143.762H181.81V142.664H184.996V139.586H186.13V142.664H189.208V143.762H186.13V147.128H184.996ZM202.996 147.128V143.762H199.81V142.664H202.996V139.586H204.13V142.664H207.208V143.762H204.13V147.128H202.996ZM220.996 147.128V143.762H217.81V142.664H220.996V139.586H222.13V142.664H225.208V143.762H222.13V147.128H220.996ZM238.996 147.128V143.762H235.81V142.664H238.996V139.586H240.13V142.664H243.208V143.762H240.13V147.128H238.996ZM256.996 147.128V143.762H253.81V142.664H256.996V139.586H258.13V142.664H261.208V143.762H258.13V147.128H256.996ZM274.996 147.128V143.762H271.81V142.664H274.996V139.586H276.13V142.664H279.208V143.762H276.13V147.128H274.996ZM292.996 147.128V143.762H289.81V142.664H292.996V139.586H294.13V142.664H297.208V143.762H294.13V147.128H292.996ZM310.996 147.128V143.762H307.81V142.664H310.996V139.586H312.13V142.664H315.208V143.762H312.13V147.128H310.996ZM328.996 147.128V143.762H325.81V142.664H328.996V139.586H330.13V142.664H333.208V143.762H330.13V147.128H328.996ZM346.996 147.128V143.762H343.81V142.664H346.996V139.586H348.13V142.664H351.208V143.762H348.13V147.128H346.996ZM364.996 147.128V143.762H361.81V142.664H364.996V139.586H366.13V142.664H369.208V143.762H366.13V147.128H364.996ZM382.996 147.128V143.762H379.81V142.664H382.996V139.586H384.13V142.664H387.208V143.762H384.13V147.128H382.996ZM400.996 147.128V143.762H397.81V142.664H400.996V139.586H402.13V142.664H405.208V143.762H402.13V147.128H400.996ZM418.996 147.128V143.762H415.81V142.664H418.996V139.586H420.13V142.664H423.208V143.762H420.13V147.128H418.996ZM436.996 147.128V143.762H433.81V142.664H436.996V139.586H438.13V142.664H441.208V143.762H438.13V147.128H436.996ZM454.996 147.128V143.762H451.81V142.664H454.996V139.586H456.13V142.664H459.208V143.762H456.13V147.128H454.996ZM472.996 147.128V143.762H469.81V142.664H472.996V139.586H474.13V142.664H477.208V143.762H474.13V147.128H472.996ZM490.996 147.128V143.762H487.81V142.664H490.996V139.586H492.13V142.664H495.208V143.762H492.13V147.128H490.996Z" fill="white"/>
<path opacity="0.1" d="M4.996 166.128V162.762H1.81V161.664H4.996V158.586H6.13V161.664H9.208V162.762H6.13V166.128H4.996ZM22.996 166.128V162.762H19.81V161.664H22.996V158.586H24.13V161.664H27.208V162.762H24.13V166.128H22.996ZM40.996 166.128V162.762H37.81V161.664H40.996V158.586H42.13V161.664H45.208V162.762H42.13V166.128H40.996ZM58.996 166.128V162.762H55.81V161.664H58.996V158.586H60.13V161.664H63.208V162.762H60.13V166.128H58.996ZM76.996 166.128V162.762H73.81V161.664H76.996V158.586H78.13V161.664H81.208V162.762H78.13V166.128H76.996ZM94.996 166.128V162.762H91.81V161.664H94.996V158.586H96.13V161.664H99.208V162.762H96.13V166.128H94.996ZM112.996 166.128V162.762H109.81V161.664H112.996V158.586H114.13V161.664H117.208V162.762H114.13V166.128H112.996ZM130.996 166.128V162.762H127.81V161.664H130.996V158.586H132.13V161.664H135.208V162.762H132.13V166.128H130.996ZM148.996 166.128V162.762H145.81V161.664H148.996V158.586H150.13V161.664H153.208V162.762H150.13V166.128H148.996ZM166.996 166.128V162.762H163.81V161.664H166.996V158.586H168.13V161.664H171.208V162.762H168.13V166.128H166.996ZM184.996 166.128V162.762H181.81V161.664H184.996V158.586H186.13V161.664H189.208V162.762H186.13V166.128H184.996ZM202.996 166.128V162.762H199.81V161.664H202.996V158.586H204.13V161.664H207.208V162.762H204.13V166.128H202.996ZM220.996 166.128V162.762H217.81V161.664H220.996V158.586H222.13V161.664H225.208V162.762H222.13V166.128H220.996ZM238.996 166.128V162.762H235.81V161.664H238.996V158.586H240.13V161.664H243.208V162.762H240.13V166.128H238.996ZM256.996 166.128V162.762H253.81V161.664H256.996V158.586H258.13V161.664H261.208V162.762H258.13V166.128H256.996ZM274.996 166.128V162.762H271.81V161.664H274.996V158.586H276.13V161.664H279.208V162.762H276.13V166.128H274.996ZM292.996 166.128V162.762H289.81V161.664H292.996V158.586H294.13V161.664H297.208V162.762H294.13V166.128H292.996ZM310.996 166.128V162.762H307.81V161.664H310.996V158.586H312.13V161.664H315.208V162.762H312.13V166.128H310.996ZM328.996 166.128V162.762H325.81V161.664H328.996V158.586H330.13V161.664H333.208V162.762H330.13V166.128H328.996ZM346.996 166.128V162.762H343.81V161.664H346.996V158.586H348.13V161.664H351.208V162.762H348.13V166.128H346.996ZM364.996 166.128V162.762H361.81V161.664H364.996V158.586H366.13V161.664H369.208V162.762H366.13V166.128H364.996ZM382.996 166.128V162.762H379.81V161.664H382.996V158.586H384.13V161.664H387.208V162.762H384.13V166.128H382.996ZM400.996 166.128V162.762H397.81V161.664H400.996V158.586H402.13V161.664H405.208V162.762H402.13V166.128H400.996ZM418.996 166.128V162.762H415.81V161.664H418.996V158.586H420.13V161.664H423.208V162.762H420.13V166.128H418.996ZM436.996 166.128V162.762H433.81V161.664H436.996V158.586H438.13V161.664H441.208V162.762H438.13V166.128H436.996ZM454.996 166.128V162.762H451.81V161.664H454.996V158.586H456.13V161.664H459.208V162.762H456.13V166.128H454.996ZM472.996 166.128V162.762H469.81V161.664H472.996V158.586H474.13V161.664H477.208V162.762H474.13V166.128H472.996ZM490.996 166.128V162.762H487.81V161.664H490.996V158.586H492.13V161.664H495.208V162.762H492.13V166.128H490.996Z" fill="white"/>
<path opacity="0.1" d="M4.996 185.128V181.762H1.81V180.664H4.996V177.586H6.13V180.664H9.208V181.762H6.13V185.128H4.996ZM22.996 185.128V181.762H19.81V180.664H22.996V177.586H24.13V180.664H27.208V181.762H24.13V185.128H22.996ZM40.996 185.128V181.762H37.81V180.664H40.996V177.586H42.13V180.664H45.208V181.762H42.13V185.128H40.996ZM58.996 185.128V181.762H55.81V180.664H58.996V177.586H60.13V180.664H63.208V181.762H60.13V185.128H58.996ZM76.996 185.128V181.762H73.81V180.664H76.996V177.586H78.13V180.664H81.208V181.762H78.13V185.128H76.996ZM94.996 185.128V181.762H91.81V180.664H94.996V177.586H96.13V180.664H99.208V181.762H96.13V185.128H94.996ZM112.996 185.128V181.762H109.81V180.664H112.996V177.586H114.13V180.664H117.208V181.762H114.13V185.128H112.996ZM130.996 185.128V181.762H127.81V180.664H130.996V177.586H132.13V180.664H135.208V181.762H132.13V185.128H130.996ZM148.996 185.128V181.762H145.81V180.664H148.996V177.586H150.13V180.664H153.208V181.762H150.13V185.128H148.996ZM166.996 185.128V181.762H163.81V180.664H166.996V177.586H168.13V180.664H171.208V181.762H168.13V185.128H166.996ZM184.996 185.128V181.762H181.81V180.664H184.996V177.586H186.13V180.664H189.208V181.762H186.13V185.128H184.996ZM202.996 185.128V181.762H199.81V180.664H202.996V177.586H204.13V180.664H207.208V181.762H204.13V185.128H202.996ZM220.996 185.128V181.762H217.81V180.664H220.996V177.586H222.13V180.664H225.208V181.762H222.13V185.128H220.996ZM238.996 185.128V181.762H235.81V180.664H238.996V177.586H240.13V180.664H243.208V181.762H240.13V185.128H238.996ZM256.996 185.128V181.762H253.81V180.664H256.996V177.586H258.13V180.664H261.208V181.762H258.13V185.128H256.996ZM274.996 185.128V181.762H271.81V180.664H274.996V177.586H276.13V180.664H279.208V181.762H276.13V185.128H274.996ZM292.996 185.128V181.762H289.81V180.664H292.996V177.586H294.13V180.664H297.208V181.762H294.13V185.128H292.996ZM310.996 185.128V181.762H307.81V180.664H310.996V177.586H312.13V180.664H315.208V181.762H312.13V185.128H310.996ZM328.996 185.128V181.762H325.81V180.664H328.996V177.586H330.13V180.664H333.208V181.762H330.13V185.128H328.996ZM346.996 185.128V181.762H343.81V180.664H346.996V177.586H348.13V180.664H351.208V181.762H348.13V185.128H346.996ZM364.996 185.128V181.762H361.81V180.664H364.996V177.586H366.13V180.664H369.208V181.762H366.13V185.128H364.996ZM382.996 185.128V181.762H379.81V180.664H382.996V177.586H384.13V180.664H387.208V181.762H384.13V185.128H382.996ZM400.996 185.128V181.762H397.81V180.664H400.996V177.586H402.13V180.664H405.208V181.762H402.13V185.128H400.996ZM418.996 185.128V181.762H415.81V180.664H418.996V177.586H420.13V180.664H423.208V181.762H420.13V185.128H418.996ZM436.996 185.128V181.762H433.81V180.664H436.996V177.586H438.13V180.664H441.208V181.762H438.13V185.128H436.996ZM454.996 185.128V181.762H451.81V180.664H454.996V177.586H456.13V180.664H459.208V181.762H456.13V185.128H454.996ZM472.996 185.128V181.762H469.81V180.664H472.996V177.586H474.13V180.664H477.208V181.762H474.13V185.128H472.996ZM490.996 185.128V181.762H487.81V180.664H490.996V177.586H492.13V180.664H495.208V181.762H492.13V185.128H490.996Z" fill="white"/>
<path opacity="0.1" d="M4.996 204.128V200.762H1.81V199.664H4.996V196.586H6.13V199.664H9.208V200.762H6.13V204.128H4.996ZM22.996 204.128V200.762H19.81V199.664H22.996V196.586H24.13V199.664H27.208V200.762H24.13V204.128H22.996ZM40.996 204.128V200.762H37.81V199.664H40.996V196.586H42.13V199.664H45.208V200.762H42.13V204.128H40.996ZM58.996 204.128V200.762H55.81V199.664H58.996V196.586H60.13V199.664H63.208V200.762H60.13V204.128H58.996ZM76.996 204.128V200.762H73.81V199.664H76.996V196.586H78.13V199.664H81.208V200.762H78.13V204.128H76.996ZM94.996 204.128V200.762H91.81V199.664H94.996V196.586H96.13V199.664H99.208V200.762H96.13V204.128H94.996ZM112.996 204.128V200.762H109.81V199.664H112.996V196.586H114.13V199.664H117.208V200.762H114.13V204.128H112.996ZM130.996 204.128V200.762H127.81V199.664H130.996V196.586H132.13V199.664H135.208V200.762H132.13V204.128H130.996ZM148.996 204.128V200.762H145.81V199.664H148.996V196.586H150.13V199.664H153.208V200.762H150.13V204.128H148.996ZM166.996 204.128V200.762H163.81V199.664H166.996V196.586H168.13V199.664H171.208V200.762H168.13V204.128H166.996ZM184.996 204.128V200.762H181.81V199.664H184.996V196.586H186.13V199.664H189.208V200.762H186.13V204.128H184.996ZM202.996 204.128V200.762H199.81V199.664H202.996V196.586H204.13V199.664H207.208V200.762H204.13V204.128H202.996ZM220.996 204.128V200.762H217.81V199.664H220.996V196.586H222.13V199.664H225.208V200.762H222.13V204.128H220.996ZM238.996 204.128V200.762H235.81V199.664H238.996V196.586H240.13V199.664H243.208V200.762H240.13V204.128H238.996ZM256.996 204.128V200.762H253.81V199.664H256.996V196.586H258.13V199.664H261.208V200.762H258.13V204.128H256.996ZM274.996 204.128V200.762H271.81V199.664H274.996V196.586H276.13V199.664H279.208V200.762H276.13V204.128H274.996ZM292.996 204.128V200.762H289.81V199.664H292.996V196.586H294.13V199.664H297.208V200.762H294.13V204.128H292.996ZM310.996 204.128V200.762H307.81V199.664H310.996V196.586H312.13V199.664H315.208V200.762H312.13V204.128H310.996ZM328.996 204.128V200.762H325.81V199.664H328.996V196.586H330.13V199.664H333.208V200.762H330.13V204.128H328.996ZM346.996 204.128V200.762H343.81V199.664H346.996V196.586H348.13V199.664H351.208V200.762H348.13V204.128H346.996ZM364.996 204.128V200.762H361.81V199.664H364.996V196.586H366.13V199.664H369.208V200.762H366.13V204.128H364.996ZM382.996 204.128V200.762H379.81V199.664H382.996V196.586H384.13V199.664H387.208V200.762H384.13V204.128H382.996ZM400.996 204.128V200.762H397.81V199.664H400.996V196.586H402.13V199.664H405.208V200.762H402.13V204.128H400.996ZM418.996 204.128V200.762H415.81V199.664H418.996V196.586H420.13V199.664H423.208V200.762H420.13V204.128H418.996ZM436.996 204.128V200.762H433.81V199.664H436.996V196.586H438.13V199.664H441.208V200.762H438.13V204.128H436.996ZM454.996 204.128V200.762H451.81V199.664H454.996V196.586H456.13V199.664H459.208V200.762H456.13V204.128H454.996ZM472.996 204.128V200.762H469.81V199.664H472.996V196.586H474.13V199.664H477.208V200.762H474.13V204.128H472.996ZM490.996 204.128V200.762H487.81V199.664H490.996V196.586H492.13V199.664H495.208V200.762H492.13V204.128H490.996Z" fill="white"/>
<path opacity="0.1" d="M4.996 223.128V219.762H1.81V218.664H4.996V215.586H6.13V218.664H9.208V219.762H6.13V223.128H4.996ZM22.996 223.128V219.762H19.81V218.664H22.996V215.586H24.13V218.664H27.208V219.762H24.13V223.128H22.996ZM40.996 223.128V219.762H37.81V218.664H40.996V215.586H42.13V218.664H45.208V219.762H42.13V223.128H40.996ZM58.996 223.128V219.762H55.81V218.664H58.996V215.586H60.13V218.664H63.208V219.762H60.13V223.128H58.996ZM76.996 223.128V219.762H73.81V218.664H76.996V215.586H78.13V218.664H81.208V219.762H78.13V223.128H76.996ZM94.996 223.128V219.762H91.81V218.664H94.996V215.586H96.13V218.664H99.208V219.762H96.13V223.128H94.996ZM112.996 223.128V219.762H109.81V218.664H112.996V215.586H114.13V218.664H117.208V219.762H114.13V223.128H112.996ZM130.996 223.128V219.762H127.81V218.664H130.996V215.586H132.13V218.664H135.208V219.762H132.13V223.128H130.996ZM148.996 223.128V219.762H145.81V218.664H148.996V215.586H150.13V218.664H153.208V219.762H150.13V223.128H148.996ZM166.996 223.128V219.762H163.81V218.664H166.996V215.586H168.13V218.664H171.208V219.762H168.13V223.128H166.996ZM184.996 223.128V219.762H181.81V218.664H184.996V215.586H186.13V218.664H189.208V219.762H186.13V223.128H184.996ZM202.996 223.128V219.762H199.81V218.664H202.996V215.586H204.13V218.664H207.208V219.762H204.13V223.128H202.996ZM220.996 223.128V219.762H217.81V218.664H220.996V215.586H222.13V218.664H225.208V219.762H222.13V223.128H220.996ZM238.996 223.128V219.762H235.81V218.664H238.996V215.586H240.13V218.664H243.208V219.762H240.13V223.128H238.996ZM256.996 223.128V219.762H253.81V218.664H256.996V215.586H258.13V218.664H261.208V219.762H258.13V223.128H256.996ZM274.996 223.128V219.762H271.81V218.664H274.996V215.586H276.13V218.664H279.208V219.762H276.13V223.128H274.996ZM292.996 223.128V219.762H289.81V218.664H292.996V215.586H294.13V218.664H297.208V219.762H294.13V223.128H292.996ZM310.996 223.128V219.762H307.81V218.664H310.996V215.586H312.13V218.664H315.208V219.762H312.13V223.128H310.996ZM328.996 223.128V219.762H325.81V218.664H328.996V215.586H330.13V218.664H333.208V219.762H330.13V223.128H328.996ZM346.996 223.128V219.762H343.81V218.664H346.996V215.586H348.13V218.664H351.208V219.762H348.13V223.128H346.996ZM364.996 223.128V219.762H361.81V218.664H364.996V215.586H366.13V218.664H369.208V219.762H366.13V223.128H364.996ZM382.996 223.128V219.762H379.81V218.664H382.996V215.586H384.13V218.664H387.208V219.762H384.13V223.128H382.996ZM400.996 223.128V219.762H397.81V218.664H400.996V215.586H402.13V218.664H405.208V219.762H402.13V223.128H400.996ZM418.996 223.128V219.762H415.81V218.664H418.996V215.586H420.13V218.664H423.208V219.762H420.13V223.128H418.996ZM436.996 223.128V219.762H433.81V218.664H436.996V215.586H438.13V218.664H441.208V219.762H438.13V223.128H436.996ZM454.996 223.128V219.762H451.81V218.664H454.996V215.586H456.13V218.664H459.208V219.762H456.13V223.128H454.996ZM472.996 223.128V219.762H469.81V218.664H472.996V215.586H474.13V218.664H477.208V219.762H474.13V223.128H472.996ZM490.996 223.128V219.762H487.81V218.664H490.996V215.586H492.13V218.664H495.208V219.762H492.13V223.128H490.996Z" fill="white"/>
<ellipse opacity="0.2" rx="19.9104" ry="1.78302" transform="matrix(-1 0 0 1 387.391 358)" fill="black" fill-opacity="0.87"/>
<path d="M380.854 295H374.91C372.284 295 370.156 297.129 370.156 299.755V301.538C370.156 303.507 371.752 305.104 373.722 305.104H377.288C379.257 305.104 380.854 303.507 380.854 301.538V295Z" fill="#F5F5F5"/>
<path d="M386.5 299.755C386.5 297.129 384.371 295 381.745 295H379.368C376.742 295 374.613 297.129 374.613 299.755V301.538C374.613 303.507 376.21 305.104 378.179 305.104H382.934C384.903 305.104 386.5 303.507 386.5 301.538V299.755Z" fill="#1C789F"/>
<rect width="5.9434" height="44.2783" transform="matrix(-1 0 0 1 382.637 305.104)" fill="#07394F"/>
<path d="M379.071 350.571C379.071 349.914 378.538 349.382 377.882 349.382H371.939C369.969 349.382 368.373 350.979 368.373 352.948V356.811C368.373 357.468 368.905 358 369.561 358H377.882C378.538 358 379.071 357.468 379.071 356.811V350.571Z" fill="#F5F5F5"/>
<path d="M386.5 350.571C386.5 349.914 385.968 349.382 385.311 349.382H376.396C374.427 349.382 372.83 350.979 372.83 352.948V356.811C372.83 357.468 373.362 358 374.019 358H385.311C385.968 358 386.5 357.468 386.5 356.811V350.571Z" fill="#1C789F"/>
<path d="M396.009 295H390.066C387.44 295 385.311 297.129 385.311 299.755V301.538C385.311 303.507 386.908 305.104 388.877 305.104H392.443C394.413 305.104 396.009 303.507 396.009 301.538V295Z" fill="#F5F5F5"/>
<path d="M401.656 299.755C401.656 297.129 399.527 295 396.901 295H394.523C391.897 295 389.769 297.129 389.769 299.755V301.538C389.769 303.507 391.365 305.104 393.335 305.104H398.089C400.059 305.104 401.656 303.507 401.656 301.538V299.755Z" fill="#1C789F"/>
<rect width="5.9434" height="44.2783" transform="matrix(-1 0 0 1 397.792 305.104)" fill="#07394F"/>
<path d="M394.226 350.571C394.226 349.914 393.694 349.382 393.038 349.382H387.094C385.125 349.382 383.528 350.979 383.528 352.948V356.811C383.528 357.468 384.06 358 384.717 358H393.038C393.694 358 394.226 357.468 394.226 356.811V350.571Z" fill="#F5F5F5"/>
<path d="M401.656 350.571C401.656 349.914 401.123 349.382 400.467 349.382H391.552C389.582 349.382 387.986 350.979 387.986 352.948V356.811C387.986 357.468 388.518 358 389.174 358H400.467C401.123 358 401.656 357.468 401.656 356.811V350.571Z" fill="#1C789F"/>
<path d="M365.698 273.901H359.755C357.129 273.901 355 276.03 355 278.656V292.325C355 292.982 355.532 293.514 356.189 293.514H364.509C365.166 293.514 365.698 292.982 365.698 292.325V273.901Z" fill="#F5F5F5"/>
<path d="M371.344 278.656C371.344 276.03 369.215 273.901 366.59 273.901H364.212C361.586 273.901 359.457 276.03 359.457 278.656V292.325C359.457 292.982 359.99 293.514 360.646 293.514H370.156C370.812 293.514 371.344 292.982 371.344 292.325V278.656Z" fill="#1C789F"/>
<rect width="5.9434" height="13.0755" transform="matrix(-1 0 0 1 366.144 293.514)" fill="#07394F"/>
<path d="M365.698 306.59H357.377C356.064 306.59 355 307.654 355 308.967V316.693C355 319.319 357.129 321.448 359.755 321.448H364.509C365.166 321.448 365.698 320.916 365.698 320.259V306.59Z" fill="#F5F5F5"/>
<path d="M371.344 308.967C371.344 307.654 370.28 306.59 368.967 306.59H361.835C360.522 306.59 359.457 307.654 359.457 308.967V316.693C359.457 319.319 361.586 321.448 364.212 321.448H366.59C369.215 321.448 371.344 319.319 371.344 316.693V308.967Z" fill="#1C789F"/>
<path d="M415.028 282.816C415.028 275.266 408.908 269.146 401.359 269.146H369.859C362.309 269.146 356.189 275.266 356.189 282.816V291.434C356.189 295.373 359.382 298.566 363.321 298.566H407.896C411.835 298.566 415.028 295.373 415.028 291.434V282.816Z" fill="#00C035"/>
<path d="M415.028 279.399C415.028 273.736 410.438 269.146 404.776 269.146V269.146C399.114 269.146 394.524 273.736 394.524 279.399V291.434C394.524 295.373 397.717 298.566 401.656 298.566H407.896C411.835 298.566 415.028 295.373 415.028 291.434V279.399Z" fill="#1C789F"/>
<rect width="7.13208" height="7.13208" rx="2.37736" transform="matrix(-1 0 0 1 381.151 284.896)" fill="#1C789F"/>
<rect width="7.13208" height="7.13208" rx="2.37736" transform="matrix(-1 0 0 1 379.071 284.896)" fill="#B0DDF0"/>
<g clip-path="url(#clip1)">
<path d="M390.958 279.25C390.958 278.594 390.425 278.061 389.769 278.061H363.618C362.961 278.061 362.429 278.594 362.429 279.25V280.439C362.429 281.095 362.961 281.627 363.618 281.627H389.769C390.425 281.627 390.958 281.095 390.958 280.439V279.25Z" fill="#07394F"/>
</g>
<rect width="10.1038" height="5.9434" rx="2.37736" transform="matrix(-1 0 0 1 390.363 266.175)" fill="#07394F"/>
<path d="M414.137 273.901H408.193C405.567 273.901 403.439 276.03 403.439 278.656V292.325C403.439 292.982 403.971 293.514 404.627 293.514H412.948C413.605 293.514 414.137 292.982 414.137 292.325V273.901Z" fill="#F5F5F5"/>
<path d="M419.783 278.656C419.783 276.03 417.654 273.901 415.028 273.901H412.651C410.025 273.901 407.896 276.03 407.896 278.656V292.325C407.896 292.982 408.428 293.514 409.085 293.514H418.594C419.251 293.514 419.783 292.982 419.783 292.325V278.656Z" fill="#1C789F"/>
<rect width="5.9434" height="22.8821" transform="matrix(-1 0 0 1 414.583 293.514)" fill="#07394F"/>
<path d="M414.137 316.396H405.816C404.503 316.396 403.439 317.461 403.439 318.774V326.5C403.439 329.126 405.567 331.255 408.193 331.255H412.948C413.605 331.255 414.137 330.723 414.137 330.066V316.396Z" fill="#F5F5F5"/>
<path d="M419.783 318.774C419.783 317.461 418.719 316.396 417.406 316.396H410.274C408.961 316.396 407.896 317.461 407.896 318.774V326.5C407.896 329.126 410.025 331.255 412.651 331.255H415.028C417.654 331.255 419.783 329.126 419.783 326.5V318.774Z" fill="#1C789F"/>
<g clip-path="url(#clip2)">
<path d="M415.325 245.67C415.325 238.12 409.205 232 401.656 232H370.156C362.606 232 356.486 238.12 356.486 245.67V261.42C356.486 265.359 359.679 268.552 363.618 268.552H408.193C412.132 268.552 415.325 265.359 415.325 261.42V245.67Z" fill="#F5F5F5"/>
<path d="M415.325 242.252C415.325 236.59 410.735 232 405.073 232V232C399.411 232 394.821 236.59 394.821 242.252V261.42C394.821 265.359 398.014 268.552 401.953 268.552H408.193C412.132 268.552 415.325 265.359 415.325 261.42V242.252Z" fill="#1C789F"/>
<path d="M391.255 246.858C391.255 245.546 390.19 244.481 388.877 244.481H361.835C360.522 244.481 359.457 245.546 359.457 246.858V252.802C359.457 254.115 360.522 255.179 361.835 255.179H388.877C390.19 255.179 391.255 254.115 391.255 252.802V246.858Z" fill="#07394F"/>
<rect width="10.1038" height="6.83491" transform="matrix(-1 0 0 1 380.259 246.264)" fill="#07394F"/>
<rect width="3.56604" height="5.9434" rx="1.18868" transform="matrix(-1 0 0 1 386.5 246.858)" fill="#FF4A4A"/>
<rect width="3.56604" height="5.9434" rx="1.18868" transform="matrix(-1 0 0 1 367.778 246.858)" fill="#FF4A4A"/>
<rect width="8.91509" height="2.9717" rx="1.18868" transform="matrix(-1 0 0 1 379.665 259.637)" fill="#07394F"/>
</g>
<ellipse opacity="0.2" cx="135.391" cy="342" rx="19.9104" ry="1.78302" fill="black" fill-opacity="0.87"/>
<path d="M141.929 279H147.873C150.499 279 152.627 281.129 152.627 283.755V285.538C152.627 287.507 151.031 289.104 149.061 289.104H145.495C143.526 289.104 141.929 287.507 141.929 285.538V279Z" fill="#F5F5F5"/>
<path d="M136.283 283.755C136.283 281.129 138.412 279 141.038 279H143.415C146.041 279 148.17 281.129 148.17 283.755V285.538C148.17 287.507 146.573 289.104 144.604 289.104H139.849C137.88 289.104 136.283 287.507 136.283 285.538V283.755Z" fill="#1C789F"/>
<rect x="140.146" y="289.104" width="5.9434" height="44.2783" fill="#07394F"/>
<path d="M143.712 334.571C143.712 333.914 144.244 333.382 144.901 333.382H150.844C152.814 333.382 154.41 334.979 154.41 336.948V340.811C154.41 341.468 153.878 342 153.222 342H144.901C144.244 342 143.712 341.468 143.712 340.811V334.571Z" fill="#F5F5F5"/>
<path d="M136.283 334.571C136.283 333.914 136.815 333.382 137.472 333.382H146.387C148.356 333.382 149.953 334.979 149.953 336.948V340.811C149.953 341.468 149.421 342 148.764 342H137.472C136.815 342 136.283 341.468 136.283 340.811V334.571Z" fill="#1C789F"/>
<path d="M126.774 279H132.717C135.343 279 137.472 281.129 137.472 283.755V285.538C137.472 287.507 135.875 289.104 133.906 289.104H130.34C128.37 289.104 126.774 287.507 126.774 285.538V279Z" fill="#F5F5F5"/>
<path d="M121.127 283.755C121.127 281.129 123.256 279 125.882 279H128.259C130.885 279 133.014 281.129 133.014 283.755V285.538C133.014 287.507 131.418 289.104 129.448 289.104H124.693C122.724 289.104 121.127 287.507 121.127 285.538V283.755Z" fill="#1C789F"/>
<rect x="124.991" y="289.104" width="5.9434" height="44.2783" fill="#07394F"/>
<path d="M128.557 334.571C128.557 333.914 129.089 333.382 129.745 333.382H135.689C137.658 333.382 139.255 334.979 139.255 336.948V340.811C139.255 341.468 138.723 342 138.066 342H129.745C129.089 342 128.557 341.468 128.557 340.811V334.571Z" fill="#F5F5F5"/>
<path d="M121.127 334.571C121.127 333.914 121.66 333.382 122.316 333.382H131.231C133.201 333.382 134.797 334.979 134.797 336.948V340.811C134.797 341.468 134.265 342 133.608 342H122.316C121.66 342 121.127 341.468 121.127 340.811V334.571Z" fill="#1C789F"/>
<path d="M157.085 257.901H163.028C165.654 257.901 167.783 260.03 167.783 262.656V276.325C167.783 276.982 167.251 277.514 166.594 277.514H158.274C157.617 277.514 157.085 276.982 157.085 276.325V257.901Z" fill="#F5F5F5"/>
<path d="M151.439 262.656C151.439 260.03 153.567 257.901 156.193 257.901H158.571C161.197 257.901 163.326 260.03 163.326 262.656V276.325C163.326 276.982 162.793 277.514 162.137 277.514H152.627C151.971 277.514 151.439 276.982 151.439 276.325V262.656Z" fill="#1C789F"/>
<rect x="156.639" y="277.514" width="5.9434" height="13.0755" fill="#07394F"/>
<path d="M157.085 290.59H165.406C166.719 290.59 167.783 291.654 167.783 292.967V300.693C167.783 303.319 165.654 305.448 163.028 305.448H158.274C157.617 305.448 157.085 304.916 157.085 304.259V290.59Z" fill="#F5F5F5"/>
<path d="M151.439 292.967C151.439 291.654 152.503 290.59 153.816 290.59H160.948C162.261 290.59 163.326 291.654 163.326 292.967V300.693C163.326 303.319 161.197 305.448 158.571 305.448H156.193C153.567 305.448 151.439 303.319 151.439 300.693V292.967Z" fill="#1C789F"/>
<path d="M107.755 266.816C107.755 259.266 113.875 253.146 121.425 253.146H152.925C160.474 253.146 166.594 259.266 166.594 266.816V275.434C166.594 279.373 163.401 282.566 159.462 282.566H114.887C110.948 282.566 107.755 279.373 107.755 275.434V266.816Z" fill="#6097FF"/>
<path d="M107.755 263.399C107.755 257.736 112.345 253.146 118.007 253.146V253.146C123.669 253.146 128.259 257.736 128.259 263.399V275.434C128.259 279.373 125.066 282.566 121.127 282.566H114.887C110.948 282.566 107.755 279.373 107.755 275.434V263.399Z" fill="#1C789F"/>
<rect x="141.632" y="268.896" width="7.13208" height="7.13208" rx="2.37736" fill="#1C789F"/>
<rect x="143.712" y="268.896" width="7.13208" height="7.13208" rx="2.37736" fill="#B0DDF0"/>
<g clip-path="url(#clip3)">
<path d="M131.825 263.25C131.825 262.594 132.358 262.061 133.014 262.061H159.165C159.822 262.061 160.354 262.594 160.354 263.25V264.439C160.354 265.095 159.822 265.627 159.165 265.627H133.014C132.358 265.627 131.825 265.095 131.825 264.439V263.25Z" fill="#07394F"/>
</g>
<rect x="132.42" y="250.175" width="10.1038" height="5.9434" rx="2.37736" fill="#07394F"/>
<path d="M108.646 257.901H114.59C117.216 257.901 119.344 260.03 119.344 262.656V276.325C119.344 276.982 118.812 277.514 118.156 277.514H109.835C109.178 277.514 108.646 276.982 108.646 276.325V257.901Z" fill="#F5F5F5"/>
<path d="M103 262.656C103 260.03 105.129 257.901 107.755 257.901H110.132C112.758 257.901 114.887 260.03 114.887 262.656V276.325C114.887 276.982 114.355 277.514 113.698 277.514H104.189C103.532 277.514 103 276.982 103 276.325V262.656Z" fill="#1C789F"/>
<rect x="108.2" y="277.514" width="5.9434" height="22.8821" fill="#07394F"/>
<path d="M108.646 300.396H116.967C118.28 300.396 119.344 301.461 119.344 302.774V310.5C119.344 313.126 117.216 315.255 114.59 315.255H109.835C109.178 315.255 108.646 314.723 108.646 314.066V300.396Z" fill="#F5F5F5"/>
<path d="M103 302.774C103 301.461 104.064 300.396 105.377 300.396H112.509C113.822 300.396 114.887 301.461 114.887 302.774V310.5C114.887 313.126 112.758 315.255 110.132 315.255H107.755C105.129 315.255 103 313.126 103 310.5V302.774Z" fill="#1C789F"/>
<g clip-path="url(#clip4)">
<path d="M107.458 229.67C107.458 222.12 113.578 216 121.127 216H152.627C160.177 216 166.297 222.12 166.297 229.67V245.42C166.297 249.359 163.104 252.552 159.165 252.552H114.59C110.651 252.552 107.458 249.359 107.458 245.42V229.67Z" fill="#F5F5F5"/>
<path d="M107.458 226.252C107.458 220.59 112.048 216 117.71 216V216C123.372 216 127.962 220.59 127.962 226.252V245.42C127.962 249.359 124.769 252.552 120.83 252.552H114.59C110.651 252.552 107.458 249.359 107.458 245.42V226.252Z" fill="#1C789F"/>
<path d="M131.528 230.858C131.528 229.546 132.593 228.481 133.906 228.481H160.948C162.261 228.481 163.325 229.546 163.325 230.858V236.802C163.325 238.115 162.261 239.179 160.948 239.179H133.906C132.593 239.179 131.528 238.115 131.528 236.802V230.858Z" fill="#07394F"/>
<rect x="142.524" y="230.264" width="10.1038" height="6.83491" fill="#07394F"/>
<rect x="136.283" y="230.858" width="3.56604" height="5.9434" rx="1.18868" fill="#1C789F"/>
<rect x="155.005" y="230.858" width="3.56604" height="5.9434" rx="1.18868" fill="#1C789F"/>
<rect x="143.118" y="243.637" width="8.91509" height="2.9717" rx="1.18868" fill="#07394F"/>
</g>
<ellipse opacity="0.2" cx="248.099" cy="366" rx="35.7123" ry="3.19811" fill="black" fill-opacity="0.87"/>
<path d="M259.825 253H270.486C275.196 253 279.014 256.818 279.014 261.528V264.726C279.014 268.259 276.15 271.123 272.618 271.123H266.222C262.689 271.123 259.825 268.259 259.825 264.726V253Z" fill="#F5F5F5"/>
<path d="M249.698 261.528C249.698 256.818 253.516 253 258.226 253H262.491C267.201 253 271.019 256.818 271.019 261.528V264.726C271.019 268.259 268.155 271.123 264.623 271.123H256.094C252.562 271.123 249.698 268.259 249.698 264.726V261.528Z" fill="#1C789F"/>
<rect x="256.627" y="271.123" width="10.6604" height="79.4198" fill="#07394F"/>
<path d="M263.024 352.675C263.024 351.497 263.978 350.542 265.156 350.542H275.816C279.349 350.542 282.212 353.406 282.212 356.939V363.868C282.212 365.045 281.258 366 280.08 366H265.156C263.978 366 263.024 365.045 263.024 363.868V352.675Z" fill="#F5F5F5"/>
<path d="M249.698 352.675C249.698 351.497 250.653 350.542 251.83 350.542H267.821C271.353 350.542 274.217 353.406 274.217 356.939V363.868C274.217 365.045 273.262 366 272.085 366H251.83C250.653 366 249.698 365.045 249.698 363.868V352.675Z" fill="#1C789F"/>
<path d="M232.641 253H243.302C248.012 253 251.83 256.818 251.83 261.528V264.726C251.83 268.259 248.966 271.123 245.434 271.123H239.038C235.505 271.123 232.641 268.259 232.641 264.726V253Z" fill="#F5F5F5"/>
<path d="M222.514 261.528C222.514 256.818 226.332 253 231.042 253H235.307C240.017 253 243.835 256.818 243.835 261.528V264.726C243.835 268.259 240.971 271.123 237.439 271.123H228.91C225.378 271.123 222.514 268.259 222.514 264.726V261.528Z" fill="#1C789F"/>
<rect x="229.443" y="271.123" width="10.6604" height="79.4198" fill="#07394F"/>
<path d="M235.84 352.675C235.84 351.497 236.794 350.542 237.972 350.542H248.632C252.165 350.542 255.028 353.406 255.028 356.939V363.868C255.028 365.045 254.074 366 252.896 366H237.972C236.794 366 235.84 365.045 235.84 363.868V352.675Z" fill="#F5F5F5"/>
<path d="M222.514 352.675C222.514 351.497 223.469 350.542 224.646 350.542H240.637C244.169 350.542 247.033 353.406 247.033 356.939V363.868C247.033 365.045 246.078 366 244.901 366H224.646C223.469 366 222.514 365.045 222.514 363.868V352.675Z" fill="#1C789F"/>
<path d="M287.009 215.156H297.67C302.38 215.156 306.198 218.974 306.198 223.684V248.203C306.198 249.38 305.244 250.335 304.066 250.335H289.141C287.964 250.335 287.009 249.38 287.009 248.203V215.156Z" fill="#F5F5F5"/>
<path d="M276.882 223.684C276.882 218.974 280.7 215.156 285.41 215.156H289.675C294.385 215.156 298.203 218.974 298.203 223.684V248.203C298.203 249.38 297.248 250.335 296.071 250.335H279.014C277.837 250.335 276.882 249.38 276.882 248.203V223.684Z" fill="#1C789F"/>
<rect x="286.21" y="250.335" width="10.6604" height="23.4528" fill="#07394F"/>
<path d="M287.009 273.788H301.934C304.289 273.788 306.198 275.697 306.198 278.052V291.91C306.198 296.62 302.38 300.439 297.67 300.439H289.141C287.964 300.439 287.009 299.484 287.009 298.307V273.788Z" fill="#F5F5F5"/>
<path d="M276.882 278.052C276.882 275.697 278.791 273.788 281.146 273.788H293.939C296.294 273.788 298.203 275.697 298.203 278.052V291.91C298.203 296.62 294.385 300.439 289.675 300.439H285.41C280.7 300.439 276.882 296.62 276.882 291.91V278.052Z" fill="#1C789F"/>
<path d="M198.528 231.146C198.528 217.605 209.506 206.627 223.047 206.627H279.547C293.089 206.627 304.066 217.605 304.066 231.146V246.604C304.066 253.669 298.339 259.396 291.274 259.396H211.321C204.256 259.396 198.528 253.669 198.528 246.604V231.146Z" fill="#F79A0F"/>
<path d="M198.528 225.016C198.528 214.86 206.761 206.627 216.917 206.627V206.627C227.074 206.627 235.307 214.86 235.307 225.017V246.604C235.307 253.669 229.579 259.396 222.514 259.396H211.321C204.256 259.396 198.528 253.669 198.528 246.604V225.016Z" fill="#1C789F"/>
<rect x="259.292" y="234.877" width="12.7925" height="12.7925" rx="4.26415" fill="#1C789F"/>
<rect x="263.024" y="234.877" width="12.7925" height="12.7925" rx="4.26415" fill="#B0DDF0"/>
<g clip-path="url(#clip5)">
<path d="M241.703 224.75C241.703 223.572 242.657 222.618 243.835 222.618H290.741C291.918 222.618 292.873 223.572 292.873 224.75V226.882C292.873 228.06 291.918 229.014 290.741 229.014H243.835C242.657 229.014 241.703 228.06 241.703 226.882V224.75Z" fill="#07394F"/>
<rect x="292.873" y="222.618" width="6.39623" height="6.39623" fill="#FF4A4A"/>
</g>
<rect x="242.769" y="201.297" width="18.1226" height="10.6604" rx="4.26415" fill="#07394F"/>
<path d="M200.127 215.156H210.788C215.498 215.156 219.316 218.974 219.316 223.684V248.203C219.316 249.38 218.361 250.335 217.184 250.335H202.259C201.082 250.335 200.127 249.38 200.127 248.203V215.156Z" fill="#F5F5F5"/>
<path d="M190 223.684C190 218.974 193.818 215.156 198.528 215.156H202.792C207.503 215.156 211.321 218.974 211.321 223.684V248.203C211.321 249.38 210.366 250.335 209.189 250.335H192.132C190.955 250.335 190 249.38 190 248.203V223.684Z" fill="#1C789F"/>
<rect x="199.328" y="250.335" width="10.6604" height="41.0425" fill="#07394F"/>
<path d="M200.127 291.377H215.052C217.407 291.377 219.316 293.286 219.316 295.642V309.5C219.316 314.21 215.498 318.028 210.788 318.028H202.259C201.082 318.028 200.127 317.074 200.127 315.896V291.377Z" fill="#F5F5F5"/>
<path d="M190 295.642C190 293.286 191.909 291.377 194.264 291.377H207.057C209.412 291.377 211.321 293.286 211.321 295.642V309.5C211.321 314.21 207.503 318.028 202.792 318.028H198.528C193.818 318.028 190 314.21 190 309.5V295.642Z" fill="#1C789F"/>
<g clip-path="url(#clip6)">
<path d="M197.995 164.519C197.995 150.977 208.973 140 222.514 140H279.014C292.556 140 303.533 150.977 303.533 164.519V192.769C303.533 199.834 297.806 205.561 290.741 205.561H210.788C203.723 205.561 197.995 199.834 197.995 192.769V164.519Z" fill="#F5F5F5"/>
<path d="M197.995 158.389C197.995 148.233 206.228 140 216.384 140V140C226.54 140 234.774 148.233 234.774 158.389V192.769C234.774 199.834 229.046 205.561 221.981 205.561H210.788C203.723 205.561 197.995 199.834 197.995 192.769V158.389Z" fill="#1C789F"/>
<path d="M241.17 166.651C241.17 164.296 243.079 162.387 245.434 162.387H293.939C296.294 162.387 298.203 164.296 298.203 166.651V177.311C298.203 179.666 296.294 181.575 293.939 181.575H245.434C243.079 181.575 241.17 179.666 241.17 177.311V166.651Z" fill="#07394F"/>
<rect x="260.891" y="165.585" width="18.1226" height="12.2594" fill="#07394F"/>
<rect x="249.698" y="166.651" width="6.39623" height="10.6604" rx="2.13208" fill="#B0DDF0"/>
<rect x="283.278" y="166.651" width="6.39623" height="10.6604" rx="2.13208" fill="#B0DDF0"/>
<rect x="261.958" y="189.571" width="15.9906" height="5.33019" rx="2.13208" fill="#07394F"/>
</g>
</g>
<defs>
<clipPath id="clip0">
<rect width="496" height="422" fill="white"/>
</clipPath>
<clipPath id="clip1">
<path d="M390.958 279.25C390.958 278.594 390.425 278.061 389.769 278.061H363.618C362.961 278.061 362.429 278.594 362.429 279.25V280.439C362.429 281.095 362.961 281.627 363.618 281.627H389.769C390.425 281.627 390.958 281.095 390.958 280.439V279.25Z" fill="white"/>
</clipPath>
<clipPath id="clip2">
<rect width="58.8396" height="36.5519" fill="white" transform="matrix(-1 0 0 1 415.325 232)"/>
</clipPath>
<clipPath id="clip3">
<path d="M131.825 263.25C131.825 262.594 132.358 262.061 133.014 262.061H159.165C159.822 262.061 160.354 262.594 160.354 263.25V264.439C160.354 265.095 159.822 265.627 159.165 265.627H133.014C132.358 265.627 131.825 265.095 131.825 264.439V263.25Z" fill="white"/>
</clipPath>
<clipPath id="clip4">
<rect width="58.8396" height="36.5519" fill="white" transform="translate(107.458 216)"/>
</clipPath>
<clipPath id="clip5">
<path d="M241.703 224.75C241.703 223.572 242.657 222.618 243.835 222.618H290.741C291.918 222.618 292.873 223.572 292.873 224.75V226.882C292.873 228.06 291.918 229.014 290.741 229.014H243.835C242.657 229.014 241.703 228.06 241.703 226.882V224.75Z" fill="white"/>
</clipPath>
<clipPath id="clip6">
<rect width="105.538" height="65.5613" fill="white" transform="translate(197.995 140)"/>
</clipPath>
</defs>
</svg>
